<?xml version="1.0" encoding="utf-8"?>
<!-- Generator: Adobe Illustrator 19.0.0, SVG Export Plug-In . SVG Version: 6.00 Build 0)  -->
<svg version="1.1" id="Layer_1" xmlns="http://www.w3.org/2000/svg" xmlns:xlink="http://www.w3.org/1999/xlink" x="0px" y="0px"
	 viewBox="0 0 262.5 101.5" style="enable-background:new 0 0 262.5 101.5;" xml:space="preserve">
<style type="text/css">
	.st0{fill:#FFFFFF;}
</style>
<g id="XMLID_404_">
	<path id="XMLID_1050_" class="st0" d="M374,50.5"/>
	<path id="XMLID_1046_" class="st0" d="M10.5,75.4V75c-2.6-1.7-4.6-4.4-4.6-8.6c0-4,2.7-7.4,5.6-9.5v-0.4C8.1,53.9,4.8,49,4.8,42.9
		c0-11.8,9.5-18.4,20.3-18.4c2.8,0,5.4,0.5,7.5,1.3H51v8.9h-9.4c1.7,2,2.9,5.1,2.9,8.7c0,11.4-8.6,17.4-19.4,17.4
		c-2.2,0-4.7-0.4-7-1.4c-1.6,1.4-2.5,2.6-2.5,4.9c0,2.9,2.1,4.7,8.3,4.7H33c12.3,0,18.8,3.8,18.8,12.6c0,10.1-10.6,18.1-27.3,18.1
		c-12.2,0-21.3-4.4-21.3-13.4C3.2,82.1,5.8,78.3,10.5,75.4z M26.4,91.9c8.2,0,13.9-3.9,13.9-8.2c0-4-3.2-5.1-9.1-5.1h-7
		c-2.8,0-5-0.2-7-0.7c-2.7,2.1-4,4.4-4,6.8C13.2,89.2,18.2,91.9,26.4,91.9z M34,42.9c0-6.4-3.9-10.1-8.9-10.1c-5,0-9,3.7-9,10.1
		c0,6.6,4,10.3,9,10.3C30,53.3,34,49.5,34,42.9z"/>
	<path id="XMLID_1043_" class="st0" d="M66.7,24.5c13.9,0,21.2,10,21.2,24.3c0,2.3-0.2,4.4-0.5,5.6H54.8c1,9.3,6.9,14.5,15.1,14.5
		c4.4,0,8.1-1.4,11.9-3.8l4.1,7.5C81,76,74.8,78.3,68.4,78.3c-14.2,0-25.3-9.9-25.3-26.8C43.1,34.8,54.7,24.5,66.7,24.5z M77.4,46.9
		c0-8.1-3.4-13-10.4-13c-6.1,0-11.3,4.5-12.3,13H77.4z"/>
	<path id="XMLID_1041_" class="st0" d="M87.2,25.8h9.9l0.8,6.9h0.4c4.6-4.5,9.8-8.1,16.8-8.1c11,0,15.8,7.4,15.8,20.4V77h-12V46.5
		c0-8.5-2.4-11.6-8-11.6c-4.5,0-7.4,2.2-11.7,6.4V77h-12V25.8z"/>
	<path id="XMLID_1038_" class="st0" d="M153.8,24.5c13.9,0,21.2,10,21.2,24.3c0,2.3-0.2,4.4-0.5,5.6h-32.6c1,9.3,6.9,14.5,15.1,14.5
		c4.4,0,8.1-1.4,11.9-3.8l4.1,7.5c-4.9,3.2-11.1,5.5-17.5,5.5c-14.2,0-25.3-9.9-25.3-26.8C130.2,34.8,141.8,24.5,153.8,24.5z
		 M164.5,46.9c0-8.1-3.4-13-10.4-13c-6.1,0-11.3,4.5-12.3,13H164.5z"/>
	<path id="XMLID_1036_" class="st0" d="M174.5,25.8h9.9l0.8,9.1h0.4c3.7-6.7,9.1-10.3,14.5-10.3c2.6,0,4.3,0.3,5.8,1L203.9,36
		c-1.8-0.5-3.1-0.8-5.3-0.8c-4.1,0-9,2.8-12.1,10.5V77h-12V25.8z"/>
	<path id="XMLID_1033_" class="st0" d="M204,10c0-4.1,3.1-6.9,7.4-6.9c4.3,0,7.4,2.8,7.4,6.9c0,4-3.1,6.8-7.4,6.8
		C207.1,16.8,204,14,204,10z M205.4,25.8h12V77h-12V25.8z"/>
	<g id="XMLID_1015_">
		<polygon id="XMLID_1018_" class="st0" points="238.4,39.7 246.1,25.8 259.1,25.8 256.6,29.9 244.3,49.6 260.5,77 260.1,77 
			260.1,77 247.6,77 247.6,77 247.5,76.9 237.6,60.1 232.1,50.8 		"/>
		<path id="XMLID_1017_" class="st0" d="M230.5,48.1l0.3-0.5l1.1-1.9l4.9-8.7l-0.6-1c-0.1-0.1-0.1-0.3-0.2-0.4l-5.7-9.7h0h-12.9h0
			l0,0L230.5,48.1z"/>
		<polygon id="XMLID_1016_" class="st0" points="230.4,53.7 216.2,77 217.3,77 227,77 236.1,62.6 230.6,53.4 		"/>
	</g>
</g>
</svg>
