<svg xmlns="http://www.w3.org/2000/svg" width="185" height="48">
    <path fill="#E95D0C" fill-rule="evenodd" d="M177.404 36.815h-6.244l8.117-13.277-7.599-12.189h6.455L185 23.538l-7.596 13.277zm-.121-24.02h-2.996l6.223 9.98.471.755-.465.76-6.774 11.079h2.82l6.772-11.837-6.051-10.737zm-9.5 12.71h-1.011v2.594h-2.174v-8.186h3.185c1.77 0 3.286.655 3.286 2.721 0 2.002-1.567 2.871-3.286 2.871zm-.101-3.878h-.91v2.165h.91c.859 0 1.264-.427 1.264-1.158 0-.73-.455-1.007-1.264-1.007zm-8.846 6.624c-2.301 0-3.412-1.31-3.412-4.107v-4.231h2.174v4.484c0 1.461.378 1.989 1.238 1.989.859 0 1.263-.528 1.263-1.989v-4.484h2.098v4.231c0 2.797-1.061 4.107-3.361 4.107zm-9.276 0c-2.275 0-3.817-1.587-3.817-4.283 0-2.694 1.542-4.206 3.817-4.206 2.274 0 3.816 1.524 3.816 4.206 0 2.696-1.542 4.283-3.816 4.283zm0-6.624c-.986 0-1.593.856-1.593 2.341 0 1.487.607 2.418 1.593 2.418.985 0 1.592-.931 1.592-2.418 0-1.485-.607-2.341-1.592-2.341zm-7.633 6.472l-1.416-2.745h-.834v2.745h-2.174v-8.186h3.11c1.769 0 3.285.605 3.285 2.646 0 1.17-.53 1.939-1.327 2.366l1.782 3.174h-2.426zm-1.466-6.472h-.784v2.014h.784c.859 0 1.314-.377 1.314-1.082 0-.706-.455-.932-1.314-.932zm-8.013 6.624c-2.249 0-4.094-1.386-4.094-4.181 0-2.746 1.895-4.308 4.145-4.308 1.163 0 2.047.504 2.629 1.084l-1.188 1.334c-.405-.352-.758-.553-1.416-.553-1.112 0-1.946.88-1.946 2.368 0 1.535.683 2.391 2.149 2.391.227 0 .48-.05.632-.151v-1.133h-1.214v-1.764h3.135v3.905a4.645 4.645 0 0 1-2.832 1.008zm-12.151-5.141l8.09 13.611h-.202l.011.018h-6.245l-.045-.079-4.948-8.325-2.762-4.647 3.146-5.528 3.881-6.886h6.454l-1.255 2.012-6.125 9.824zm-6.745-1.034l-.152.272-6.535-10.995v24.433l6.509-10.644.102-.167 2.717 4.576-4.52 7.188h-10.796V12.761l-.719 3.585c-.886-.26-1.563-.416-2.656-.416-2.03 0-4.478 1.401-6.041 5.241v15.568h-5.988V25.447l-.018.084H69.208c.52 4.618 3.436 7.212 7.55 7.212 2.188 0 4.062-.674 5.937-1.868l2.031 3.737c-2.448 1.608-5.52 2.749-8.749 2.749-6.004 0-10.871-3.554-12.217-9.756v9.134h-5.989V21.534c0-4.203-1.198-5.76-4.01-5.76-2.24 0-3.697 1.091-5.833 3.165v17.8H41.94V25.531H25.755c.521 4.618 3.436 7.212 7.55 7.212 2.188 0 4.062-.674 5.936-1.868l2.032 3.737c-2.448 1.608-5.52 2.749-8.749 2.749-7.083 0-12.603-4.929-12.603-13.335 0-.172.017-.333.022-.502-1.405 3.355-4.868 5.119-9.007 5.119a9.478 9.478 0 0 1-3.49-.673c-.781.673-1.249 1.297-1.249 2.439 0 1.452 1.042 2.334 4.165 2.334h4.531c6.145 0 9.374 1.869 9.374 6.279 0 5.034-5.313 8.978-13.645 8.978C4.531 48-.001 45.82-.001 41.358c0-2.127 1.303-3.997 3.646-5.448v-.209c-1.302-.829-2.292-2.18-2.292-4.256 0-1.971 1.355-3.684 2.812-4.722v-.207C2.447 25.218.832 22.779.832 19.77c0-5.863 4.74-9.134 10.104-9.134 1.406 0 2.708.26 3.748.623h9.166v2.682c2.16-2.127 4.973-3.305 7.84-3.305 5.749 0 9.23 3.439 10.25 8.673v-8.05h4.946l.417 3.426h.21c2.291-2.232 4.893-4.049 8.383-4.049 5.409 0 7.807 3.609 7.859 9.916 1.358-6.219 6.29-9.916 11.39-9.916 5.914 0 9.425 3.639 10.328 9.127v-8.504h4.947l.417 4.515h.207c1.823-3.321 4.531-5.138 7.24-5.138 1.3 0 2.134.156 2.915.519l-.02.104h5.686v.015h6.406l2.863 4.824.107.202.282.476-2.436 4.346-.535.954zM11.56 44.107c4.115 0 6.926-1.92 6.926-4.1 0-1.97-1.615-2.542-4.531-2.542h-3.489c-1.406 0-2.499-.104-3.488-.363-1.355 1.038-1.979 2.18-1.979 3.374 0 2.283 2.498 3.631 6.561 3.631zm-.624-29.371c-2.501 0-4.479 1.817-4.479 5.034 0 3.269 1.978 5.138 4.479 5.138 2.447 0 4.425-1.869 4.425-5.138 0-3.165-1.927-5.034-4.425-5.034zm8.226.935c.742.876 1.315 2.206 1.434 3.731a13.248 13.248 0 0 1 1.8-3.731h-3.234zm12.685-.416c-3.02 0-5.624 2.232-6.145 6.486h11.351c0-4.047-1.717-6.486-5.206-6.486zm43.454 0c-3.021 0-5.625 2.232-6.146 6.486h11.353c0-4.047-1.719-6.486-5.207-6.486zm28.598-8.459c-2.137 0-3.699-1.401-3.699-3.372 0-2.023 1.562-3.425 3.699-3.425 2.134 0 3.697 1.402 3.697 3.425 0 1.971-1.563 3.372-3.697 3.372z"/>
</svg>
